<svg width="40" height="40" viewBox="0 0 40 40" fill="none" xmlns="http://www.w3.org/2000/svg">
<rect width="40" height="40" rx="13.3333" fill="#FF4D00"/>
<path d="M15.3398 16.6784C15.3398 15.4376 15.8327 14.2476 16.7101 13.3703C17.5875 12.4929 18.7774 12 20.0182 12C21.259 12 22.4489 12.4929 23.3263 13.3703C24.2037 14.2476 24.6966 15.4376 24.6966 16.6784V20.577C24.6966 21.8178 24.2037 23.0077 23.3263 23.8851C22.4489 24.7625 21.259 25.2554 20.0182 25.2554C18.7774 25.2554 17.5875 24.7625 16.7101 23.8851C15.8327 23.0077 15.3398 21.8178 15.3398 20.577V16.6784Z" stroke="white" stroke-width="1.66667"/>
<path d="M18.4608 15.5084C18.4608 15.5084 18.8296 15.1185 20.0202 15.1185C21.2109 15.1185 21.5797 15.5084 21.5797 15.5084M18.4608 17.8476C18.4608 17.8476 18.8296 17.4577 20.0202 17.4577C21.2109 17.4577 21.5797 17.8476 21.5797 17.8476M27.0378 19.0172V20.5766C27.0378 21.4982 26.8563 22.4107 26.5036 23.2621C26.1509 24.1135 25.634 24.8871 24.9824 25.5388C24.3307 26.1904 23.5571 26.7073 22.7057 27.06C21.8543 27.4127 20.9418 27.5942 20.0202 27.5942C19.0987 27.5942 18.1861 27.4127 17.3347 27.06C16.4833 26.7073 15.7097 26.1904 15.0581 25.5388C14.4064 24.8871 13.8895 24.1135 13.5369 23.2621C13.1842 22.4107 13.0027 21.4982 13.0027 20.5766V19.0172" stroke="white" stroke-width="1.66667" stroke-linecap="round"/>
</svg>
